<svg preserveAspectRatio="none" width="100%" height="100%" overflow="visible" style="display: block;" viewBox="0 0 24 24" fill="none" xmlns="http://www.w3.org/2000/svg">
<g id="Logo">
<path id="Shape 1" fill-rule="evenodd" clip-rule="evenodd" d="M3.95543 20.2508L8.68342 22.9173C8.95152 23.0684 9.28772 23.0007 9.48529 22.7683C10.0805 22.0684 10.9788 21.6215 11.9861 21.6215C12.9944 21.6215 13.8935 22.0692 14.4888 22.77C14.6861 23.0025 15.022 23.0705 15.2904 22.9196L20.0426 20.244C20.3574 20.0665 20.4466 19.6679 20.2433 19.3744C20.0128 19.0415 19.7615 18.7233 19.4914 18.4215C18.7756 17.6221 17.9114 16.9607 16.9682 16.4289L16.3351 16.0718L16.2956 16.0516C16.2584 16.0344 16.2212 16.0172 16.1835 16.0003C15.9864 15.9115 15.7532 15.9586 15.6069 16.1147C14.7107 17.0702 13.4211 17.6706 11.9861 17.6706C10.5551 17.6706 9.26856 17.0733 8.37249 16.1221C8.22677 15.9673 7.99537 15.9218 7.79989 16.0108L7.79636 16.0124L7.05607 16.4292C5.86714 17.0986 4.80637 17.9752 3.993 19.0515C3.90798 19.164 3.82561 19.2784 3.74557 19.3944C3.54673 19.6831 3.64618 20.0766 3.95543 20.2508" fill="var(--fill-0, #294DFF)"/>
<path id="Ellipse 2" fill-rule="evenodd" clip-rule="evenodd" d="M4.23368 3.87527C3.9754 4.03098 3.86406 4.36018 3.96818 4.65389C4.28794 5.55529 4.23726 6.59397 3.74234 7.49068C3.24804 8.38697 2.41246 8.94725 1.51051 9.10139C1.2165 9.15157 1 9.41581 1 9.72958C1 10.9949 1.00018 13.9811 1.00018 15.3113C1.00018 15.6773 1.292 15.9731 1.63876 15.9494C3.03483 15.8551 4.34976 15.4467 5.52241 14.7937L6.08567 14.454C6.23903 14.3545 6.38938 14.2504 6.53679 14.1419C6.70989 14.0148 6.78637 13.7859 6.72484 13.5734C6.35158 12.2839 6.46713 10.8417 7.16089 9.58423C7.85777 8.32067 8.99787 7.49891 10.2533 7.20598C10.4547 7.15925 10.6095 6.98387 10.629 6.76764C10.6522 6.51185 10.6663 6.25337 10.6709 5.99228L10.6713 5.5981C10.645 4.07796 10.3025 2.63983 9.71006 1.35267C9.55842 1.02299 9.16854 0.903205 8.8665 1.08491L4.23368 3.87527Z" fill="var(--fill-0, #1F95FF)"/>
<path id="Ellipse 1" fill-rule="evenodd" clip-rule="evenodd" d="M20.2576 7.49093C19.7629 6.59397 19.7122 5.55543 20.0318 4.65389C20.1358 4.36043 20.0245 4.03076 19.7662 3.87527L15.1336 1.08491C14.8316 0.903094 14.4416 1.02283 14.2899 1.35281C13.6974 2.64013 13.3551 4.07832 13.3286 5.59866L13.3289 5.99191C13.3337 6.25296 13.3478 6.51165 13.371 6.76764C13.3906 6.98403 13.5453 7.15925 13.7467 7.20618C15.0021 7.49877 16.1421 8.32081 16.8393 9.58422C17.5328 10.8418 17.6484 12.2839 17.2755 13.5734C17.2138 13.7861 17.2899 14.0149 17.4633 14.1421C17.6107 14.2504 17.7611 14.3545 17.9143 14.4542L18.4775 14.7937C19.6503 15.447 20.9652 15.8551 22.3614 15.9494C22.708 15.9731 22.9999 15.6775 22.9999 15.3113C23 13.9811 23 10.9949 23 9.72942C23 9.41572 22.7837 9.15157 22.4895 9.1015C21.5874 8.94724 20.7522 8.38697 20.2576 7.49093" fill="var(--fill-0, #5FBBFF)"/>
</g>
</svg>
