<svg preserveAspectRatio="none" width="100%" height="100%" overflow="visible" style="display: block;" viewBox="0 0 14 14" fill="none" xmlns="http://www.w3.org/2000/svg">
<g id="Arrow Right">
<path id="Vector" fill-rule="evenodd" clip-rule="evenodd" d="M12.944 6.6889C12.933 6.65464 12.924 6.6234 12.91 6.59114C12.861 6.48331 12.799 6.38151 12.712 6.29383L8.711 2.29272C8.32 1.90269 7.687 1.90269 7.296 2.29272C6.905 2.68175 6.905 3.31366 7.296 3.70369L9.59 6.00156H2.001C1.448 6.00156 1 6.44904 1 7.00033C1 7.55161 1.448 7.99808 2.001 7.99808H9.59L7.296 10.297C6.905 10.686 6.905 11.3179 7.296 11.7079C7.491 11.9024 7.747 12.0002 8.003 12.0002C8.259 12.0002 8.515 11.9024 8.711 11.7079L12.712 7.70581C12.721 7.69674 12.724 7.68465 12.732 7.67558C12.812 7.58991 12.883 7.49417 12.929 7.3823C12.933 7.3702 12.933 7.36113 12.937 7.35206C12.976 7.24926 12.994 7.14344 12.998 7.03661C12.999 7.00335 12.995 6.9711 12.993 6.93683C12.987 6.85117 12.971 6.76953 12.944 6.6889Z" fill="var(--fill-0, #111827)"/>
</g>
</svg>
